<svg xmlns="http://www.w3.org/2000/svg" viewBox="0 0 512 512"><defs><style>.cls-1{fill:#ffca57;}.cls-2{fill:#fcd383;}.cls-3{fill:#d1d2d3;}.cls-4{fill:#fff;}.cls-5{fill:#6891d7;}.cls-6{fill:#567aaf;}.cls-7{fill:#7aa9ed;}.cls-8{fill:#4d7099;}.cls-9{fill:#719dd3;}</style></defs><title>Dental Care</title><g id="BULINE"><circle class="cls-1" cx="256" cy="256" r="256"/></g><g id="Icons"><circle class="cls-2" cx="256" cy="264.29" r="185.75"/><ellipse class="cls-3" cx="256.25" cy="83.98" rx="49.88" ry="41.38"/><path class="cls-4" d="M388,139.32a110.14,110.14,0,0,1-12.42,51.55,115.25,115.25,0,0,0-7.36,18.41,26.19,26.19,0,0,1-24.91,18.32H169.16a26.19,26.19,0,0,1-24.91-18.32,115.25,115.25,0,0,0-7.36-18.41,110.13,110.13,0,0,1-12.42-51.54c0-52.16,34.28-94.43,76.59-94.43q.88,0,1.77,0h.53c.61,0,1.23.05,1.84.09s1.18.09,1.77.15l.32,0c1.2.12,2.38.27,3.56.46s2.4.41,3.58.67l1,.23c.84.19,1.68.41,2.52.65.42.11.84.23,1.25.36.83.25,1.66.52,2.48.8a67,67,0,0,1,9.91,4.35,51.78,51.78,0,0,0,49.26,0,64.09,64.09,0,0,1,30.56-7.83C353.74,44.9,388,87.17,388,139.32Z"/><path class="cls-3" d="M375.39,191.3a116.52,116.52,0,0,0-7.14,18,26.18,26.18,0,0,1-24.91,18.32H169.17a26.17,26.17,0,0,1-24.91-18.32,114.82,114.82,0,0,0-7.37-18.41,110.13,110.13,0,0,1-12.42-51.54c0-51.46,33.36-93.29,74.88-94.4-10.16,16-16.21,36.19-16.21,58.1a110.13,110.13,0,0,0,12.42,51.54A114.87,114.87,0,0,1,202.92,173a26.19,26.19,0,0,0,24.91,18.32Z"/><path class="cls-5" d="M350.19,258.6H161.81a12.38,12.38,0,0,1-11.9-8.94l-3.27-11.28a11.17,11.17,0,0,1,10.73-14.28H354.63a11.17,11.17,0,0,1,10.73,14.28l-3.27,11.28A12.38,12.38,0,0,1,350.19,258.6Z"/><path class="cls-6" d="M365.15,241.35l-2.41,8.31a12.38,12.38,0,0,1-11.9,8.94H162.46a12.39,12.39,0,0,1-11.9-8.94l-3.27-11.28A11.17,11.17,0,0,1,158,224.1h16.8l2.41,8.31a12.38,12.38,0,0,0,11.9,8.94Z"/><path class="cls-6" d="M196.88,258.6,210,413.38c1,11.65,5.36,22.26,12.14,29.42l25.08,26.48c5.2,5.49,12.46,5.49,17.66,0l25.08-26.48c6.78-7.16,11.16-17.77,12.14-29.42L315.12,258.6Z"/><rect class="cls-7" x="174.22" y="284.71" width="153.64" height="24.71" rx="12.36" transform="translate(107.03 -64.23) rotate(18.47)"/><rect class="cls-7" x="174.22" y="334.45" width="153.64" height="24.71" rx="12.36" transform="translate(122.79 -61.66) rotate(18.47)"/><rect class="cls-7" x="174.22" y="384.64" width="153.64" height="24.71" rx="12.36" transform="translate(138.69 -59.08) rotate(18.47)"/><path class="cls-8" d="M315.12,258.6l-2.62,31-1.22,14.56L267.69,289.6H236.88l1.37,16.22,2.06,24.38L242.57,357l2.1,24.83,2.26,26.81,3,35.73c.91,10.86,4.78,20.82,10.8,27.92-4.51,2.15-9.63,1.14-13.58-3L222.09,442.8c-6.78-7.16-11.16-17.77-12.14-29.42l-1.48-17.57L206.2,369l-2.1-24.84-2.26-26.81L199.78,293l-2.26-26.81-.64-7.57Z"/><polygon class="cls-6" points="312.5 289.6 311.28 304.16 267.69 289.6 312.5 289.6"/><path class="cls-9" d="M236.88,289.6l1.37,16.22L199.78,293,186,288.37a12.36,12.36,0,1,1,7.83-23.44l3.7,1.24,70.17,23.43Z"/><path class="cls-9" d="M242.57,357,204.1,344.16,186,338.11a12.36,12.36,0,1,1,7.83-23.44l8,2.68,38.47,12.85Z"/><path class="cls-9" d="M246.93,408.65l-38.46-12.84L186,388.3a12.36,12.36,0,1,1,7.83-23.44L206.2,369l38.47,12.84Z"/></g></svg>