<?xml version="1.0" encoding="utf-8"?>
<!-- Generator: Adobe Illustrator 24.3.0, SVG Export Plug-In . SVG Version: 6.00 Build 0)  -->
<svg version="1.1" id="Layer_1" xmlns="http://www.w3.org/2000/svg" xmlns:xlink="http://www.w3.org/1999/xlink" x="0px" y="0px"
	 viewBox="0 0 350 350" enable-background="new 0 0 350 350" xml:space="preserve">
<g>
	<path fill="#2AA9E1" d="M175.003,41.053c-73.858,0-133.951,60.084-133.951,133.944c0,73.86,60.093,133.95,133.951,133.95
		c73.86,0,133.944-60.09,133.944-133.95C308.948,101.137,248.864,41.053,175.003,41.053z M175.003,297.3
		C107.565,297.3,52.7,242.436,52.7,174.997c0-67.433,54.865-122.298,122.304-122.298c67.434,0,122.298,54.865,122.298,122.298
		C297.301,242.436,242.437,297.3,175.003,297.3z"/>
	<path fill="#2AA9E1" d="M185.992,177.748c0.222-0.884,0.375-1.795,0.375-2.751c0-0.955-0.153-1.866-0.375-2.752l19.427-19.428
		c2.275-2.274,2.275-5.964,0-8.235c-2.274-2.275-5.959-2.275-8.234,0l-19.427,19.427c-0.888-0.221-1.797-0.372-2.754-0.372
		c-6.271,0-11.362,5.088-11.362,11.36c0,6.271,5.091,11.361,11.362,11.361c0.957,0,1.866-0.153,2.754-0.373l36.914,36.913
		c1.139,1.139,2.628,1.708,4.116,1.708c1.492,0,2.981-0.569,4.12-1.708c2.274-2.27,2.274-5.959,0-8.233L185.992,177.748z"/>
	<path fill="#2AA9E1" d="M284.267,174.962c-0.013-29.869-12.081-56.961-31.575-76.699c-0.137-0.18-0.264-0.361-0.428-0.526
		c-0.165-0.165-0.347-0.289-0.529-0.43c-19.739-19.503-46.852-31.571-76.731-31.571c-29.886,0-57.003,12.07-76.749,31.579
		c-0.169,0.142-0.352,0.264-0.512,0.422c-0.165,0.163-0.284,0.345-0.422,0.519c-19.511,19.746-31.579,46.855-31.579,76.742
		c0,29.883,12.068,56.992,31.569,76.735c0.143,0.178,0.267,0.362,0.432,0.524c0.16,0.165,0.347,0.289,0.524,0.431
		c19.733,19.498,46.828,31.56,76.698,31.571c0.01,0,0.021,0.006,0.038,0.006c0.013,0,0.022-0.006,0.034-0.006
		c29.87-0.012,56.964-12.073,76.704-31.571c0.176-0.142,0.357-0.266,0.522-0.431c0.16-0.162,0.284-0.347,0.428-0.524
		c19.494-19.733,31.562-46.83,31.575-76.694c0-0.013,0-0.026,0-0.041C284.267,174.986,284.267,174.974,284.267,174.962z
		 M254.346,180.823l18.086-0.004c-1.338,22.538-10.351,43.034-24.456,58.913l-12.756-12.749c-2.274-2.271-5.96-2.274-8.236,0
		c-2.274,2.275-2.274,5.962,0,8.238l12.758,12.749c-15.885,14.107-36.382,23.119-58.914,24.452v-18.084
		c0-3.214-2.61-5.824-5.824-5.824c-3.219,0-5.822,2.61-5.822,5.824v18.084c-22.539-1.333-43.036-10.345-58.914-24.452l12.749-12.753
		c2.274-2.272,2.274-5.959,0-8.234c-2.274-2.274-5.959-2.274-8.233,0l-12.752,12.753c-14.11-15.883-23.123-36.379-24.453-58.917
		h18.083c3.215,0,5.824-2.605,5.824-5.822c0-3.214-2.609-5.822-5.824-5.822H77.578c1.33-22.537,10.343-43.03,24.446-58.914
		l12.759,12.749c1.136,1.139,2.627,1.708,4.116,1.708c1.489,0,2.98-0.569,4.117-1.708c2.274-2.272,2.274-5.96,0-8.234
		l-12.755-12.751c15.884-14.107,36.381-23.118,58.92-24.454v18.084c0,3.216,2.604,5.824,5.822,5.824
		c3.214,0,5.824-2.608,5.824-5.824V77.57c22.532,1.336,43.029,10.344,58.914,24.454l-12.751,12.751
		c-2.275,2.274-2.275,5.962,0,8.234c1.139,1.139,2.627,1.708,4.117,1.708c1.491,0,2.98-0.569,4.119-1.708l12.749-12.749
		c14.105,15.884,23.118,36.377,24.456,58.914l-18.086,0.002c-3.219,0-5.824,2.606-5.824,5.822
		C248.522,178.215,251.127,180.823,254.346,180.823z"/>
</g>
</svg>
